<svg xmlns="http://www.w3.org/2000/svg" width="12.743" height="12.021" viewBox="0 0 12.743 12.021">
  <path id="Icon_ionic-md-arrow-round-back" data-name="Icon ionic-md-arrow-round-back" d="M17.264,11.181H9.514L12.52,8.306a1.2,1.2,0,0,0,0-1.637,1.071,1.071,0,0,0-1.564,0l-5,4.852a1.1,1.1,0,0,0-.326.811v.014a1.1,1.1,0,0,0,.326.811l5,4.852a1.071,1.071,0,0,0,1.564,0,1.2,1.2,0,0,0,0-1.637L9.511,13.5H17.26a1.134,1.134,0,0,0,1.108-1.159A1.122,1.122,0,0,0,17.264,11.181Z" transform="translate(-5.625 -6.33)" fill="#ffffff"/>
</svg>
