<?xml version="1.0" encoding="UTF-8"?>
<!-- Generator: Adobe Illustrator 24.0.0, SVG Export Plug-In . SVG Version: 6.00 Build 0)  -->
<svg version="1.1" id="Layer_1" xmlns="http://www.w3.org/2000/svg" xmlns:xlink="http://www.w3.org/1999/xlink" x="0px" y="0px" viewBox="0 0 346.44 45.39" style="enable-background:new 0 0 346.44 45.39;" xml:space="preserve">
<style type="text/css">
	.st0{clip-path:url(#SVGID_2_);fill:#003C8F;}
	.st1{clip-path:url(#SVGID_4_);fill:url(#SVGID_5_);}
	.st2{clip-path:url(#SVGID_7_);fill:#FFFFFF;}
	.st3{clip-path:url(#SVGID_7_);fill:#231916;}
</style>
<g>
	<defs>
		<rect id="SVGID_1_" width="346.44" height="45.39"/>
	</defs>
	<clipPath id="SVGID_2_">
		<use xlink:href="#SVGID_1_" style="overflow:visible;"/>
	</clipPath>
	<path class="st0" d="M20.08,37.8c0.15,0,0.24,0.12,0.2,0.27l-1.81,6.76c-0.04,0.15-0.19,0.27-0.34,0.27h-2.1   c-0.14,0-0.23-0.12-0.19-0.27l1.81-6.76c0.04-0.15,0.19-0.27,0.34-0.27H20.08z M31.11,37.8c0.15,0,0.25,0.12,0.24,0.26l-0.65,6.77   c-0.01,0.14-0.15,0.26-0.29,0.26h-1.72c-0.15,0-0.25-0.12-0.23-0.26l0.6-4.37c0.02-0.14-0.04-0.15-0.13-0.02l-3.08,4.41   c-0.09,0.13-0.29,0.24-0.44,0.24h-0.95c-0.15,0-0.28-0.11-0.3-0.25l-0.67-4.46c-0.02-0.14-0.08-0.13-0.14,0.02l-1.7,4.42   c-0.06,0.15-0.22,0.26-0.37,0.26h-1.2c-0.15,0-0.22-0.12-0.15-0.26l2.91-6.77c0.06-0.15,0.23-0.26,0.38-0.26h1.73   c0.15,0,0.28,0.11,0.3,0.25l0.62,4.18c0.02,0.13,0.11,0.13,0.21,0l2.95-4.18c0.1-0.13,0.29-0.24,0.44-0.24H31.11z M12.26,44.85   c0.02,0.14,0.15,0.25,0.3,0.25h1.91c0.15,0,0.25-0.11,0.22-0.24l-1.23-6.81c-0.03-0.14-0.16-0.24-0.31-0.24h-1.43   c-0.15,0-0.35,0.11-0.44,0.24l-5,6.81c-0.1,0.13-0.06,0.24,0.09,0.24h1.31c0.15,0,0.34-0.11,0.43-0.25l0.86-1.27   c0.09-0.13,0.29-0.24,0.43-0.24h2.4c0.15,0,0.28,0.11,0.3,0.25L12.26,44.85z M9.97,42.49c-0.15,0-0.19-0.11-0.1-0.25l1.58-2.34   c0.09-0.14,0.18-0.14,0.2,0l0.29,2.34c0.02,0.14-0.09,0.25-0.23,0.25H9.97z M37.3,44.85c0.02,0.14,0.15,0.25,0.3,0.25h1.92   c0.15,0,0.25-0.11,0.22-0.24l-1.23-6.81c-0.02-0.14-0.16-0.24-0.31-0.24h-1.43c-0.15,0-0.35,0.11-0.44,0.24l-5,6.81   c-0.1,0.13-0.06,0.24,0.09,0.24h1.31c0.14,0,0.34-0.11,0.43-0.25l0.85-1.27c0.09-0.13,0.29-0.24,0.43-0.24h2.41   c0.15,0,0.28,0.11,0.29,0.25L37.3,44.85z M35.02,42.49c-0.15,0-0.19-0.11-0.1-0.25l1.58-2.34c0.09-0.14,0.18-0.14,0.2,0l0.29,2.34   c0.02,0.14-0.09,0.25-0.24,0.25H35.02z M7.24,37.79H5.17c-0.15,0-0.3,0.12-0.34,0.27l-1.22,4.57c-0.16,0.61-0.34,1-0.78,1.33   c-0.31,0.22-0.63,0.32-0.97,0.32c-0.61,0-0.92-0.33-1.09-0.6c-0.01-0.03-0.04-0.04-0.09-0.01C0.47,43.77,0.27,43.89,0.05,44   c-0.04,0.03-0.06,0.1-0.05,0.13c0.14,0.3,0.39,0.68,0.89,0.95c0.57,0.31,1.28,0.31,1.55,0.31c0.73,0,1.78-0.14,2.64-0.82   C5.8,44,6.02,43.34,6.2,42.66l1.23-4.6C7.47,37.91,7.39,37.79,7.24,37.79"/>
</g>
<g>
	<defs>
		<path id="SVGID_3_" d="M5.31,26.54c0.05,0.2,0.21,0.35,0.27,0.47c0.06,0.11,0.28,0.26,0.44,0.34c0.16,0.08,0.43,0.3,0.45,0.38    c0.03,0.08,0.3,0.27,0.45,0.34c0.15,0.08,0.51,0.22,0.56,0.23c0.06,0.01,0.18,0.05,0.21,0.06c0.11,0.07,0.05-0.06-0.09-0.19    c-0.13-0.12-0.63-0.25-0.75-0.42c-0.12-0.17-0.52-0.42-0.64-0.44c-0.13-0.02-0.35-0.29-0.44-0.4c-0.1-0.11-0.08-0.37-0.2-0.38    c-0.11-0.01-0.24-0.23-0.28-0.24c0,0,0,0-0.01,0C5.25,26.29,5.26,26.35,5.31,26.54 M17.36,35.4c0.05,0.01,0.09,0.03,0.12,0.05    L17.36,35.4z M19.89,0C11.27,0,4.74,6.78,4.74,15.15c0,4.16,1.76,7.62,2.98,9.03c0.07,0.08,0.95,1.35,1.19,1.25    c0.15-0.06,0.27,0.1,0.37,0.26c0.1,0.16,0.19,0.32,0.25,0.26c0.13-0.13,0.75,0.37,0.73,0.5c-0.01,0.08,0.89,0.45,0.94,0.53    c0.23,0.41,1.07,0.08,1.28,0.54c0.09,0.2,0.31,0.16,0.53,0.12c0.26-0.05,0.54-0.1,0.66,0.23c0.13,0.35,0.39,0.3,0.81,0.25    c0.34-0.04,0.78-0.08,1.35,0.08c0.61,0.18,0.83,0.05,1.15,0.05c0.24,0,0.42,0.03,0.69-0.02c0.33-0.06,0.79-0.15,1.23-0.13    c0.52,0.02,0.89-0.09,1.6-0.35c0.3-0.11,0.3-0.11,0.55-0.19c0.39-0.11,1.39-0.61,1.52-0.74c0.12-0.12,0.71-0.48,0.95-0.51    c0.33-0.04,0.83-0.55,0.95-0.7c0.28-0.34,1.17-0.75,1.17-1.07c0-0.34,0.24-0.49,0.45-0.49s0.9-0.8,0.75-0.94    c-0.16-0.16,0.45-0.4,0.39-0.56c-0.06-0.16,0.17-0.39,0.31-0.5c0.14-0.11,0.28-0.29,0.28-0.48c0-0.2,0.51-0.7,0.43-0.86    c-0.14-0.26,0.44-0.4,0.44-1.05c0-0.46,0.69-1.17,0.78-0.42c0.16,1.39-1.07,4.61-1.3,4.66c-0.23,0.04-0.75,1.42-0.96,1.45    c-0.22,0.03-0.55,0.2-0.7,0.83c-0.06,0.25-1.42,0.82-1.48,1.38c-0.02,0.24-1.44,0.35-1.52,1.02c-0.03,0.23-0.5,0.53-0.77,0.41    c-0.27-0.11-1.83,0.12-2.21,0.86c-0.11,0.21-2.11,0.72-2.37,0.51c-0.21-0.18-0.45-0.49-1.15,0c-0.31,0.22-2.24,0.14-2.54,0.1    c-0.43-0.04-0.92-0.09-1.7-0.26c-2.76-0.58-4.65-1.61-4.69-1.58c-0.03,0.03,0.57,0.54,0.69,0.66c0.12,0.13,1.27,0.77,1.49,0.74    c0.23-0.03,0.33,0.11,0.42,0.24c0.05,0.06,0.15,0.03,0.26,0c0.11-0.03,0.23-0.06,0.28,0.01c0.09,0.15,0.53,0.04,0.68,0.23    c0.15,0.19,1.63,0.22,1.88,0.32c0.32,0.14,0.74,0.23,0.88,0.36c0.14,0.14,0.23,0.08,0.43,0.13c0.2,0.05,0.46,0.25,0.36,0.38    c-0.18,0.22-0.87,0.21-1.3,0.19c-0.21-0.01-0.36-0.02-0.36,0c0,0.05,2.28,0.42,3.5,0.39c0.17,0,0.4,0,0.65,0.01    c0.55,0.01,1.16,0.02,1.3-0.08c0.1-0.08,0.26-0.06,0.4-0.04c0.13,0.02,0.24,0.04,0.31-0.02c0.14-0.11,0.39-0.15,0.56-0.15    c0.17,0,0.94-0.01,1.16-0.19c0.22-0.17,0.94-0.06,1-0.3c0.1-0.37,1.24-0.24,1.45-0.5c0.21-0.27,1.29-0.46,1.32-0.68    c0.03-0.22,1.23-0.61,1.33-0.81c0.09-0.2,0.46-0.1,0.52-0.38c0.04-0.15,0.76-0.43,0.77-0.62c0.02-0.19,0.45-0.25,0.48-0.43    c0.03-0.17,0.71-0.58,0.74-0.73c0.03-0.15,0.7-0.77,0.86-0.93c0.16-0.16,0.38-0.75,0.55-0.79c0.18-0.03,0.31-0.62,0.51-0.75    c0.2-0.13,0.14-0.39,0.26-0.43c0.13-0.03,0.86-0.73,0.61-1.13c-0.18-0.28,1.02-1.86,0.91-2.3c-0.16-0.7,0.34-0.91,0.34-1.3    c0-0.95,0.26-1.38,0.29-1.85c0.05-0.55,0.12-1.14,0.08-1.47c-0.03-0.32-0.05-0.38-0.01-0.71c0.04-0.43,0.08-1,0.43-0.28    c0.36,0.75,0.35,1.6,0.35,1.8c0,0.72,0.06,0.89,0.06,1.26c0,1.01-0.15,1.43-0.15,1.71c0,1.01-0.21,1.61-0.27,2.09    c-0.04,0.33-0.41,0.57-0.29,0.69c0.12,0.12-0.01,0.57-0.2,0.65c-0.19,0.08-0.41,0.68-0.37,1.01c0.05,0.33-0.36,1.06-0.49,1.12    c-0.4,0.19-0.28,1.02-0.54,1.01c-0.25-0.02-0.56,0.9-0.62,0.97c-0.15,0.22-0.15,0.34-0.46,0.66c-0.23,0.23-0.94,1.09-1.17,1.33    c-0.17,0.17-0.53,0.5-0.76,0.72c-0.16,0.15-0.76,0.92-1.27,1.01c-0.43,0.07-0.76,0.86-1.22,0.79c-0.13-0.02-0.26,0.12-0.41,0.27    c-0.16,0.15-0.34,0.31-0.56,0.26c-0.11-0.03-0.23,0.11-0.38,0.24c-0.17,0.15-0.36,0.3-0.61,0.22c-0.18-0.05-0.42,0.09-0.66,0.23    c-0.21,0.12-0.41,0.25-0.54,0.24c-0.13-0.01-0.21,0.05-0.3,0.12c-0.1,0.08-0.2,0.16-0.36,0.09c-0.2-0.08-0.72,0.08-0.77,0.21    c-0.06,0.13-1.52,0.86-5.41,0.81c-1.83-0.02-2.97-0.35-2.92-0.24c0.04,0.11,0.65,0.16,0.78,0.29c0.06,0.06,0.25,0.06,0.46,0.06    c0.26,0,0.55,0,0.67,0.11c0.11,0.12,0.27,0.11,0.41,0.11c0.11,0,0.22,0,0.28,0.06c0.11,0.11,0.63,0.05,0.91,0.1    c0.17,0.23,2.9,0.02,3.01-0.14c0.11-0.16,0.78-0.32,1.13-0.19c0.11,0.04,0.35-0.05,0.61-0.15c0.25-0.09,0.51-0.19,0.66-0.15    c0.94,0.26,4.77-1.74,4.84-1.98c0.07-0.24,0.78-0.35,0.78-0.47c0-0.12,1.03-0.56,1.06-0.72c0.03-0.16,0.64-0.64,0.86-0.67    c0.38-0.04,0.1-0.45,0.39-0.32c0.08,0.03,0.22-0.48,0.34-0.51c0.12-0.03,0.72-0.22,0.75-0.52c0.02-0.16,0.24-0.64,0.56-0.59    c0.08,0.01,0.14-0.1,0.2-0.22c0.06-0.11,0.12-0.23,0.19-0.22c0.14,0.01,0.1-0.58,0.5-0.61c0.35-0.03,0.46-0.37,0.46-0.61    c0-0.54-0.37-0.47,0.56-0.83c0.18-0.07,0.36-0.98,0.58-0.98c0.08,0,0.22-0.85,0.4-0.76c0.26,0.14,0.21-0.8,0.37-0.84    c0.17-0.04,0.24-0.99,0.44-1.18c0.31-0.31,0.35-2.06,0.67-2.81c0.1-0.26,0.1-1.57,0.16-1.71c0.12-0.32-0.05-1.32,0-1.52    c0.04-0.2-0.12-0.93-0.07-1.02c0.12-0.21-0.13-0.89-0.07-1.04c0.06-0.15-0.19-1.52-0.43-1.88c-0.18-0.27-0.13-1.06-0.39-1.31    c-0.1-0.1-0.29-0.78-0.35-0.94c-0.1-0.26-0.51-1.3-0.7-1.49c-0.07-0.07-0.14-0.24-0.16-0.28C31.22,2.38,26.16,0,19.89,0z"/>
	</defs>
	<clipPath id="SVGID_4_">
		<use xlink:href="#SVGID_3_" style="overflow:visible;"/>
	</clipPath>
	
		<radialGradient id="SVGID_5_" cx="0.9904" cy="45.3834" r="1" gradientTransform="matrix(13.9702 0 0 -13.9702 2.8359 647.9872)" gradientUnits="userSpaceOnUse">
		<stop offset="0" style="stop-color:#00A6E9"/>
		<stop offset="0.1619" style="stop-color:#009DE1"/>
		<stop offset="0.4258" style="stop-color:#0085CD"/>
		<stop offset="0.757" style="stop-color:#005DAB"/>
		<stop offset="1" style="stop-color:#003C8F"/>
	</radialGradient>
	<rect x="4.74" y="0" class="st1" width="32.21" height="35.62"/>
</g>
<g>
	<defs>
		<rect id="SVGID_6_" width="346.44" height="45.39"/>
	</defs>
	<clipPath id="SVGID_7_">
		<use xlink:href="#SVGID_6_" style="overflow:visible;"/>
	</clipPath>
	<path class="st2" d="M33.2,12.8l0.72-2.68c0.17-0.64-0.21-1.16-0.85-1.16h-4.75c-0.64,0-1.3,0.52-1.47,1.16l-0.72,2.68   c-0.17,0.64,0.21,1.16,0.85,1.16h4.74C32.37,13.96,33.03,13.44,33.2,12.8"/>
	<path class="st2" d="M24.91,15.55c0.16-0.62-0.21-1.12-0.83-1.12h-5.1c-0.62,0-1.25,0.5-1.41,1.12l-0.89,3.41   c-0.16,0.62,0.21,1.12,0.83,1.12h5.1c0.62,0,1.25-0.5,1.41-1.12L24.91,15.55z"/>
	<path class="st2" d="M27.04,7.63c-0.14,0.53-0.7,0.97-1.23,0.97h-3.96c-0.54,0-0.85-0.44-0.71-0.97l0.41-1.53   c0.14-0.53,0.69-0.97,1.23-0.97h3.96c0.53,0,0.85,0.43,0.71,0.97L27.04,7.63"/>
	<path class="st3" d="M92.83,27.84v-1.36c-1.14-0.86-1.83-1.59-2.32-2.18c1-1.12,1.82-2.39,2.31-3.78v-1.16h-3V15.9h-1.2v3.46H85.3   v1.2h6.21c-1.06,3.09-5.06,5.93-7.15,7v1.28c1.45-0.74,2.93-1.65,4.25-2.74v8.44h1.2V25.1C90.53,25.95,91.71,26.99,92.83,27.84"/>
	<polygon class="st3" points="98.6,32.53 98.6,23.73 102.47,23.73 102.47,22.48 98.6,22.48 98.6,15.9 97.31,15.9 97.31,22.48    93.23,22.48 93.23,23.73 97.31,23.73 97.31,32.53 92.47,32.53 92.47,33.77 102.97,33.77 102.97,32.53  "/>
	<path class="st3" d="M105.3,16.71h16.44V33.7H105.3V16.71z M120.5,17.91h-13.96V32.5h13.96V17.91z M116.59,22.69v5.06   c0,3.56-1.49,3.3-4.54,3.3v-1.34c3.11,0,3.27,0.2,3.27-2.11v-4.9h-7.83v-1.24h7.83v-2.4h1.26v2.4h3.02v1.24H116.59z M111.25,27.7   c0,0-0.81-1.65-2.42-3.39h1.62c1.51,1.61,2.34,3.39,2.34,3.39H111.25z"/>
	<path class="st3" d="M125.25,17.32c0,0,2.11,1.22,3.82,2.48v-1.52c-1.83-1.35-3.82-2.39-3.82-2.39V17.32z"/>
	<path class="st3" d="M128.26,22.73c-1.84-1.34-3.82-2.39-3.82-2.39v1.42c0,0,2.11,1.22,3.82,2.48V22.73z"/>
	<path class="st3" d="M124.12,32.59v1.6c2.25-0.96,4.65-5.3,4.86-8.29h-1.26C127.39,28.13,126.08,31.11,124.12,32.59"/>
	<path class="st3" d="M142.75,34.32c-0.87-2.4-1.89-4.35-3.45-7.05h-1.4c0.44,0.56,1.28,2.12,2.04,3.66   c-1.65,0.58-4.85,0.98-7.35,1.19c1.29-2.25,2.16-4.2,2.93-6.37h7.16v-1.24h-6.24v-4.29h5.39v-1.24h-5.39V15.9h-1.32v3.09h-5.03   v1.24h5.03v4.29h-5.88v1.24h4.88c-0.56,1.84-1.45,3.86-3.05,6.47c-0.81,0.04-1.44,0.05-1.77,0.03v1.33   c5.72-0.31,9.15-0.96,11.17-1.56c0.47,1,0.85,1.86,0.99,2.28L142.75,34.32z"/>
	<path class="st3" d="M163.02,34.47c-2.57-0.8-7.61-3.67-9.31-10.25c-0.33,3.47-4.27,8.86-9.41,10.25v-1.28   c5.01-1.98,8.79-7.03,8.73-11.91V15.9h1.35v5.38v0.58c0.81,5.28,4.07,9.45,8.65,11.14V34.47z"/>
	<path class="st3" d="M172.08,33.69h14.98V16.53h-14.98V33.69z M184.95,23.89h-10.76v-5.5h10.76V23.89z M174.19,25.76h10.76v6.07   h-10.76V25.76z"/>
	<path class="st3" d="M236.43,26.92c0,0-1.99-2.19-2.67-4.07v11.68h-1.95V23.54c-0.19,1.59-1.79,4.05-3.53,5.72v-2.55   c1.47-1.73,2.63-3.84,2.89-5.47h-2.34v-1.86h2.98V15.9h1.95v3.48h2.67v1.86h-2.01c0.35,1.06,2.01,2.95,2.01,2.95V26.92z    M244.55,23.69v10.84h-2.02V23.69h-3.34c0,6.73-0.64,9.54-3.83,10.62v-2.44c1.89-1.26,1.76-4.32,1.76-8.51v-6.21   c5.59-0.1,8.92-1.08,8.92-1.08v1.81c-3.43,1.06-6.83,1.02-6.83,1.02v2.92H247v1.86H244.55z"/>
	<polygon class="st3" points="288.03,33.19 288.03,31.33 295.69,31.33 295.69,19.24 288.82,19.24 288.82,17.38 304.91,17.38    304.91,19.24 297.95,19.24 297.95,31.33 305.68,31.33 305.68,33.19  "/>
	<path class="st3" d="M326.28,34.03c-3.41-0.45-6.42-1.98-8.27-3.62v4.12h-2.11v-4.1c-1.7,1.7-4.82,3.1-8.32,3.62v-2.02   c2.57-0.33,4.93-1.02,6.31-1.95h-5.71v-1.72h7.72v-1.41H310v-1.53h5.9v-1.24h-6.65v-1.57h4.18c-0.33-0.77-0.7-1.37-1.01-1.88h-4.27   v-1.74h2.76c-0.49-0.89-1.2-1.92-1.98-2.92h2.15c0.86,1.2,1.5,2.19,1.92,2.92h0.79V15.9h2.03v3.09h2.34V15.9h2.03v3.09h0.89   c0.79-0.73,1.36-1.74,1.92-2.92h1.88c-0.32,0.93-1.1,2.34-1.63,2.92h2.57v1.74h-4.15c-0.21,0.58-0.63,1.26-0.96,1.88h4v1.57h-6.71   v1.24h5.96v1.53h-5.96v1.41h7.81v1.72h-5.7c1.41,0.76,3.35,1.53,6.16,1.92V34.03z M314.7,20.73c0.25,0.5,0.58,1.2,0.84,1.88h2.94   c0.45-0.64,0.79-1.35,0.93-1.88H314.7z"/>
	<path class="st3" d="M337.78,15.82h-1.63c-0.9,1.52-4.07,3.98-8.46,5.42v2.21c3.38-0.86,7.98-3.96,9.37-5.77   c1.36,1.62,5.65,4.3,9.39,5.59v-2.23C341.6,19.26,338.84,17.19,337.78,15.82"/>
	<path class="st3" d="M339.55,28.52c0.36,0.45,1.18,1.51,1.98,2.61c-0.79,0.13-3.89,0.61-8.22,0.84c1.41-1.49,2.43-3.05,2.96-4.14   h8.94v-1.8h-16.42v1.8h5.05c-0.57,1.02-1.61,2.69-3.23,4.24c-0.5,0.01-1.01,0.02-1.53,0.02v1.99c4.39-0.19,9.39-0.63,13.6-1.35   c0.46,0.67,0.82,1.22,0.95,1.5h2.53c-1.83-2.53-3.71-5-4.28-5.71H339.55z"/>
	<rect x="331.76" y="22.05" class="st3" width="11.04" height="1.78"/>
	<path class="st3" d="M217.14,15.95h-2.28c-0.76,2.63-3.25,5.85-6.03,6.97v2.29C212.72,24.09,216.15,19.45,217.14,15.95"/>
	<path class="st3" d="M212.35,25.22h3.48c-0.1,1.97-0.85,5.28-4.7,6.95v2.34c5.7-2.03,6.71-7.33,6.87-9.29h4.12v4.91   c0,1.62,0.2,2.1-3.31,2.1v1.98c5.42,0,5.41-1.1,5.41-5.1v-5.76h-11.87V25.22z"/>
	<path class="st3" d="M221.41,15.95h-2.13c2.16,5.4,4.87,7.44,8.21,9.11V22.8C224.73,21.42,223.13,19.54,221.41,15.95"/>
	<path class="st3" d="M197.78,34.54v-4.2h-3.63v-1.86h3.63V22.2c-1.18,2.96-4.17,7.1-8.28,9.44v-2.65c2.52-1.48,5.77-5.32,6.91-7.97   h-6.44v-1.87h7.81v-3.27h2.07v3.27h7.81v1.87h-6.44c1.14,2.65,4.4,6.49,6.95,7.97v2.65c-4.15-2.34-7.13-6.48-8.31-9.44v6.28h3.63   v1.86h-3.63v4.2H197.78z"/>
	<path class="st3" d="M254.38,24.28c1.11-0.06,2.61-0.22,4.07-0.47c0.06,0.34,0.11,0.68,0.15,0.95h1.26   c-0.11-0.88-0.42-2.34-0.63-3.14h-1.26c0.07,0.24,0.14,0.55,0.22,0.89c-0.83,0.18-1.45,0.25-2.11,0.32c1.55-0.73,3.05-3.7,3.2-4.15   h-1.56c-0.13,0.4-0.34,0.79-0.59,1.16c-0.25-0.19-0.4-0.35-0.59-0.51c0.56-0.73,1.35-2.34,1.63-3.2h-1.51   c-0.24,0.74-0.69,1.71-1.17,2.24l-0.45-0.37l-0.83,1.16c0.63,0.49,1.42,1.09,2.14,1.71c-0.96,1.09-2,1.87-2,1.87v0.61   c-0.47-0.58-0.89-1.37-1.22-2.1h1.12v-1.86h-1.51V15.9h-1.88v3.48h-2.09v1.86h1.55c-0.09,1.34-0.72,3.62-1.88,5.34v2.76   c1.82-1.58,2.24-3.86,2.42-5.71v10.91h1.88V22.99c0.56,2.05,1.65,3.53,1.65,3.53V24.28z"/>
	<path class="st3" d="M265.16,30.54c-0.27,2.1-0.94,1.66-1.21,1.33c-0.21-0.25-0.35-0.52-0.48-0.85c1.06-0.89,1.97-2.29,2.68-3.62   h-1.97c-0.33,0.64-0.81,1.32-1.34,1.86c-0.21-0.69-0.44-1.56-0.54-2.22h4.1v-1.78h-1.57v-0.89h-1.82v0.89h-1.04   c-0.04-0.29-0.09-0.64-0.13-1.01c1.02-0.07,2.28-0.22,3.51-0.44c0.06,0.34,0.12,0.68,0.15,0.95h1.26   c-0.11-0.88-0.42-2.34-0.63-3.14h-1.26c0.07,0.24,0.14,0.55,0.22,0.89c-0.83,0.19-1.46,0.25-2.11,0.32   c1.55-0.73,3.38-3.7,3.52-4.15h-1.56c-0.15,0.45-0.42,0.9-0.74,1.33c-0.41-0.34-0.57-0.51-0.76-0.68c0.55-0.73,1.35-2.34,1.63-3.2   h-1.51c-0.24,0.74-0.69,1.71-1.17,2.25l-0.46-0.37l-0.56,0.79c-0.09-1.41-0.16-2.54-0.17-2.88h-1.93c0.12,2.93,0.62,8.79,0.68,9.36   h-5.28v1.78h1.38c-0.19,2.77-1.05,4.28-2.34,5.22l-0.01,1.93c0.97-0.31,2.72-1.36,3.63-4.41c0.93,0.47,2.7,1.51,2.7,1.51v-1.94   c0,0-1.3-0.75-2.29-1.22c0-0.33,0.15-0.7,0.15-1.08h2.36c0.19,1.08,0.56,2.49,0.97,3.6c-0.91,0.71-2.11,1.44-3.76,1.85v2.04   c0,0,2.85-0.8,4.57-2.23c0.1,0.21,0.23,0.46,0.33,0.62c1.31,2.05,4.04,2.31,4.78-2.38H265.16z M261.41,19.39   c0.57,0.44,1.24,0.96,1.94,1.59c-0.63,0.64-1.29,1.16-1.7,1.47C261.56,21.44,261.48,20.37,261.41,19.39"/>
	<path class="st3" d="M281.57,25.33h4.77v-1.72h-8.49c0.22-0.42,0.4-0.86,0.54-1.31h-2.13c-0.15,0.47-0.38,0.9-0.63,1.31h-6.82v1.72   h5.33c-1.83,1.63-4.3,2.65-5.99,3.01v2.02c1.21-0.19,5.83-1.89,8.53-5.04h2.21c1.62,1.91,6.3,4.42,7.9,4.92v-2.3   C285.11,27.52,282.66,26.16,281.57,25.33"/>
	<path class="st3" d="M278.15,21.97h7.25v-5.38h-7.25V21.97z M283.47,20.41h-3.39v-2.27h3.39V20.41z"/>
	<path class="st3" d="M269.79,21.97h6.87v-5.38h-6.87V21.97z M274.74,20.41h-3.02v-2.27h3.02V20.41z"/>
	<path class="st3" d="M278.27,34.12h7.01v-6.09h-7.01V34.12z M283.27,32.55h-2.98v-2.96h2.98V32.55z"/>
	<path class="st3" d="M269.64,34.12h7.01v-6.09h-7.01V34.12z M274.64,32.55h-2.98v-2.96h2.98V32.55z"/>
	<path class="st3" d="M82.05,26.01v-1.13H73.8v1.21h6.97c-0.1,1.15-0.72,2.93-2.21,4.45c-1.34-1.26-2.06-2.63-2.57-3.73h-1.28   c0.76,1.96,1.81,3.43,2.94,4.53c-1.07,0.83-2.47,1.52-4.28,1.88v1.3c1.51-0.25,3.5-0.98,5.19-2.38c1.74,1.38,3.57,2.03,4.81,2.38   v-1.32c-1.64-0.5-2.9-1.17-3.89-1.9C80.72,30.02,81.7,28.28,82.05,26.01"/>
	<path class="st3" d="M70.21,23.28c-0.5-1.63-1.31-3.64-1.31-3.64l-0.98,0.44c0,0,0.73,1.8,1.26,3.66L70.21,23.28z"/>
	<path class="st3" d="M76.47,17.78h2.59v4.46c0,1.17,0.25,1.63,1.57,1.63h1.3c1.17,0,1.31-1.02,1.63-3.36h-1.17   c-0.15,1.66-0.35,2.08-0.78,2.08h-0.67c-0.63,0-0.63-0.04-0.63-0.65v-5.37h-5.06c0,3.63,0.09,5.42-1.45,6.68v1.32   C76.28,23.38,76.47,20.41,76.47,17.78"/>
	<path class="st3" d="M72.39,17.86h-3.01c0.53-0.8,0.97-1.96,0.97-1.96h-1.3c0,0-0.31,0.87-1,1.96h-2.21v6.27v0.79   c-0.36,0.02-0.59,0.05-1,0.06v1.3c0.32-0.01,0.68-0.04,1-0.06v2.7c0,1.63-0.05,3.64-1.17,4.21v1.41c1.92-0.72,2.32-2.61,2.32-5.54   L67,26.1c0.56-0.06,1.09-0.13,1.55-0.19v5.27h1.11v-5.44c0.54-0.08,1.11-0.17,1.55-0.25v6.02c0,1.82-0.21,1.78-1.8,1.78v1.22   c2.55,0,2.99-0.34,2.99-2.54v-6.73c0.54-0.1,0.9-0.16,0.9-0.16v-1.23c0,0-0.35,0.08-0.9,0.19V17.86z M71.2,24.24   c-0.88,0.14-2.59,0.42-4.14,0.57h-0.04v-0.67v-5.06h4.18V24.24z"/>
	<rect x="44.87" y="24.62" class="st3" width="17.58" height="1.36"/>
</g>
</svg>