<?xml version="1.0" standalone="no"?>
<!DOCTYPE svg PUBLIC "-//W3C//DTD SVG 20010904//EN"
 "http://www.w3.org/TR/2001/REC-SVG-20010904/DTD/svg10.dtd">
<svg version="1.0" xmlns="http://www.w3.org/2000/svg"
 width="520.000000pt" height="520.000000pt" viewBox="0 0 520.000000 520.000000"
 preserveAspectRatio="xMidYMid meet">
<metadata>
Created by potrace 1.14, written by Peter Selinger 2001-2017
</metadata>
<g transform="translate(0.000000,520.000000) scale(0.100000,-0.100000)"
fill="#000000" stroke="none">
<path d="M3450 4480 c0 -5 16 -9 35 -8 23 1 31 4 23 9 -18 12 -58 11 -58 -1z"/>
<path d="M3380 4470 c-8 -5 -37 -14 -65 -21 -27 -6 -77 -28 -110 -49 -33 -20
-71 -40 -83 -45 -63 -19 -426 -416 -483 -526 -12 -24 -33 -75 -46 -114 -70
-204 -70 -365 -2 -495 37 -70 79 -114 207 -219 165 -134 270 -286 302 -433 17
-76 8 -235 -18 -318 -27 -85 -9 -60 62 84 103 208 129 323 96 431 -6 22 -12
50 -13 63 0 12 -5 22 -10 22 -4 0 -5 5 -1 12 4 6 3 8 -3 5 -12 -8 -56 36 -46
46 3 4 -2 7 -11 7 -13 0 -16 5 -12 16 5 12 2 15 -9 10 -11 -4 -22 4 -33 24 -9
17 -25 33 -35 36 -9 3 -15 10 -12 15 4 5 -3 9 -14 9 -11 0 -26 7 -35 15 -8 8
-17 15 -20 15 -3 0 -19 13 -36 30 -17 17 -36 30 -43 30 -21 0 -127 110 -128
133 0 12 -3 31 -5 42 -10 39 -10 124 -1 147 6 13 11 29 13 37 1 8 9 28 18 45
8 17 25 58 37 91 12 33 28 67 36 76 7 8 13 18 13 22 0 4 12 32 26 64 15 32 28
63 30 70 2 11 82 145 121 203 9 14 13 22 9 18 -5 -4 -15 0 -23 8 -16 16 -37 9
-30 -10 3 -6 -6 -25 -20 -41 -24 -29 -24 -29 -17 -5 7 25 7 25 -15 6 -11 -11
-21 -15 -21 -9 0 5 11 15 24 23 13 7 27 22 30 33 4 16 -2 13 -30 -14 -21 -20
-34 -43 -34 -58 0 -19 -3 -22 -12 -13 -9 9 -19 5 -45 -20 -38 -37 -42 -30 -11
21 13 20 21 44 20 53 -4 22 38 70 56 63 7 -3 10 0 6 6 -3 6 7 24 22 41 16 17
23 28 17 24 -7 -4 -13 -3 -13 3 0 25 252 221 285 221 21 0 105 40 105 50 0 6
7 10 15 10 8 0 15 5 15 10 0 12 -1 12 -20 0z m-410 -304 c0 -2 -8 -10 -17 -17
-16 -13 -17 -12 -4 4 13 16 21 21 21 13z m90 -110 c0 -2 -7 -9 -15 -16 -13
-11 -14 -10 -9 4 5 14 24 23 24 12z m-49 -63 c-12 -20 -14 -14 -5 12 4 9 9 14
11 11 3 -2 0 -13 -6 -23z"/>
<path d="M3540 4465 c0 -8 2 -15 4 -15 2 0 6 7 10 15 3 8 1 15 -4 15 -6 0 -10
-7 -10 -15z"/>
<path d="M3595 4430 c-4 -6 -1 -18 7 -27 7 -9 13 -27 13 -41 0 -14 6 -27 13
-30 10 -3 12 9 10 49 -2 41 -7 55 -20 57 -9 2 -19 -2 -23 -8z"/>
<path d="M3260 4379 c0 -5 5 -7 10 -4 6 3 10 8 10 11 0 2 -4 4 -10 4 -5 0 -10
-5 -10 -11z"/>
<path d="M3197 4349 c-45 -29 -65 -49 -52 -49 9 0 93 59 100 70 10 16 2 12
-48 -21z"/>
<path d="M1836 4353 c-49 -16 -60 -26 -80 -66 -39 -84 50 -195 139 -173 13 3
41 20 60 38 34 29 36 34 34 85 -2 45 -8 60 -29 81 -41 41 -78 51 -124 35z"/>
<path d="M3110 4280 c-9 -6 -10 -10 -3 -10 6 0 15 5 18 10 8 12 4 12 -15 0z"/>
<path d="M3053 4238 c-28 -20 -51 -48 -39 -48 6 0 81 70 76 70 -3 0 -20 -10
-37 -22z"/>
<path d="M2350 4240 c-38 -9 -76 -47 -86 -86 -10 -39 16 -103 51 -130 22 -17
45 -24 75 -24 36 0 48 6 82 40 38 38 39 41 32 87 -9 66 -17 77 -69 102 -24 11
-46 21 -47 20 -2 -1 -19 -5 -38 -9z"/>
<path d="M3583 4184 c-3 -8 -1 -20 4 -25 7 -7 11 -2 11 15 0 29 -6 33 -15 10z"/>
<path d="M3090 4129 c0 -5 5 -7 10 -4 6 3 10 8 10 11 0 2 -4 4 -10 4 -5 0 -10
-5 -10 -11z"/>
<path d="M3094 4099 c-19 -22 -19 -22 4 -8 12 8 22 17 22 21 0 12 -6 9 -26
-13z"/>
<path d="M2928 4076 c-19 -14 -23 -26 -10 -26 4 0 13 9 20 20 14 23 13 24 -10
6z"/>
<path d="M3310 3930 c-39 -9 -76 -47 -86 -87 -17 -66 52 -153 120 -153 37 0
90 30 107 61 15 29 13 102 -3 129 -10 16 -90 63 -100 59 -2 -1 -19 -5 -38 -9z"/>
<path d="M2539 3696 c-19 -36 -37 -66 -41 -66 -5 0 -8 -6 -8 -13 0 -8 -9 -24
-20 -37 -20 -23 -40 -79 -40 -111 0 -9 -7 -20 -16 -23 -12 -5 -14 -9 -5 -20 8
-10 8 -16 -4 -26 -9 -8 -13 -21 -9 -36 3 -13 2 -24 -3 -24 -6 0 -10 -17 -11
-37 -1 -20 -8 -41 -16 -45 -10 -6 -12 -17 -6 -44 5 -20 6 -43 3 -50 -3 -8 1
-14 11 -14 12 0 15 -6 10 -25 -3 -14 -2 -25 4 -25 6 0 8 -9 5 -19 -3 -13 2
-23 16 -30 11 -6 18 -17 15 -24 -3 -9 19 -20 66 -36 39 -12 74 -29 77 -37 3
-8 11 -14 18 -14 7 0 15 -5 17 -11 2 -5 11 -11 20 -13 10 -1 20 -5 24 -8 3 -4
12 -4 20 -1 8 3 14 -1 14 -11 0 -11 9 -16 29 -16 21 0 30 -6 34 -21 3 -12 10
-18 16 -15 23 14 128 -75 114 -97 -4 -7 -8 -25 -9 -42 -3 -48 -13 -92 -27
-127 -29 -68 -59 -134 -68 -148 -5 -8 -15 -26 -21 -40 -7 -14 -18 -31 -25 -38
-7 -7 -13 -20 -13 -28 0 -8 -4 -14 -10 -14 -5 0 -10 -4 -10 -9 0 -7 -77 -131
-97 -156 -5 -5 -20 -26 -33 -45 -40 -57 -108 -142 -148 -184 -20 -21 -31 -36
-24 -32 23 13 12 -6 -35 -62 -77 -91 -81 -95 -94 -87 -8 5 -10 4 -5 -4 5 -7
-14 -32 -48 -64 -31 -29 -56 -57 -56 -63 0 -6 -13 -23 -30 -39 -16 -16 -30
-36 -30 -46 0 -9 -24 -35 -52 -58 -75 -58 -153 -148 -155 -180 -2 -24 -28 -54
-54 -63 -5 -2 -7 -11 -3 -21 5 -15 13 -11 49 28 39 41 85 60 85 35 0 -5 -4
-10 -10 -10 -5 0 -10 -5 -10 -11 0 -5 6 -7 13 -3 6 4 0 -6 -15 -23 -16 -16
-28 -34 -28 -41 0 -7 -10 -12 -22 -12 -21 0 -20 2 10 30 43 39 25 39 -19 0
-19 -16 -37 -30 -41 -30 -5 0 -8 -4 -8 -8 0 -5 13 -7 30 -6 17 1 27 -2 24 -8
-3 -5 -12 -7 -20 -4 -8 3 -11 0 -7 -10 3 -7 1 -14 -4 -14 -5 0 -19 -9 -31 -21
-12 -11 -27 -17 -34 -13 -7 4 -8 3 -4 -4 12 -20 24 -14 99 48 41 33 78 60 84
60 6 0 14 7 17 16 4 10 13 13 28 9 18 -5 20 -4 8 4 -13 9 -12 12 8 17 12 4 22
13 22 20 0 8 10 14 25 14 14 0 24 5 23 11 -2 7 9 15 25 20 16 4 25 4 21 -2
-14 -23 16 -5 51 31 43 44 73 56 34 13 -16 -17 -5 -12 34 17 31 23 57 45 57
49 0 3 17 17 38 31 37 25 146 133 297 294 62 67 85 85 104 83 13 -1 26 4 29
12 3 10 -2 11 -18 6 -17 -5 -10 8 31 57 60 72 107 113 96 85 -14 -37 21 -3 61
60 78 124 132 295 132 423 0 202 -107 376 -351 570 -96 77 -144 136 -186 226
-48 103 -44 291 8 448 11 32 18 60 16 63 -3 2 -20 -25 -38 -61z m-615 -2390
c-3 -9 -13 -16 -22 -16 -13 0 -12 3 3 20 20 23 29 21 19 -4z"/>
<path d="M3702 3679 c-69 -20 -91 -118 -42 -184 69 -92 225 -29 206 83 -12 64
-17 72 -56 92 -43 22 -58 23 -108 9z"/>
<path d="M1615 3249 c-9 -16 -104 -251 -211 -520 -107 -270 -203 -507 -214
-528 -29 -57 -70 -87 -129 -95 -29 -4 -49 -11 -46 -16 8 -14 392 -13 400 0 4
6 -7 10 -27 10 -48 0 -78 24 -78 63 1 18 25 95 54 172 l53 140 185 3 185 2 67
-177 c66 -175 67 -178 46 -192 -11 -7 -20 -17 -20 -22 0 -5 92 -9 205 -9 125
0 205 4 205 10 0 5 -23 12 -51 16 -62 8 -103 41 -141 111 -14 26 -112 264
-218 528 -106 264 -199 492 -206 508 -19 35 -40 34 -59 -4z m65 -478 c38 -106
70 -197 70 -202 0 -5 -68 -9 -151 -9 -83 0 -149 4 -147 8 2 4 36 97 77 205 41
108 76 196 77 194 2 -2 35 -90 74 -196z"/>
<path d="M4584 3259 c-99 -23 -201 -114 -225 -202 -17 -64 -6 -167 24 -229 38
-76 92 -134 222 -239 142 -114 184 -171 192 -257 5 -54 2 -66 -22 -107 -20
-36 -39 -52 -78 -71 -150 -70 -315 16 -334 174 -6 55 -19 74 -34 51 -5 -8 -9
-72 -9 -142 l0 -128 48 -22 c41 -19 64 -22 192 -22 139 0 148 1 208 29 79 37
153 115 177 187 13 38 16 73 13 133 -7 143 -58 218 -262 380 -164 131 -191
167 -191 247 0 70 21 103 86 137 57 30 158 27 213 -7 39 -25 80 -87 91 -139 4
-18 12 -31 18 -29 8 2 12 41 12 122 l0 119 -60 13 c-69 14 -221 15 -281 2z"/>
<path d="M380 3252 c-19 -7 1 -22 29 -22 43 0 90 -20 104 -44 9 -15 13 -144
15 -485 4 -487 -7 -774 -33 -876 -34 -132 -109 -244 -206 -306 -51 -34 -68
-66 -26 -53 144 44 324 202 389 340 55 117 58 158 65 784 3 316 10 585 14 598
10 25 45 42 90 42 16 0 29 5 29 10 0 6 -3 10 -7 10 -61 3 -456 4 -463 2z"/>
<path d="M3547 3244 c-13 -14 6 -24 44 -24 53 0 76 -25 84 -92 4 -29 5 -255 3
-503 -4 -522 0 -503 -86 -520 -30 -5 -50 -13 -46 -17 11 -12 494 -10 494 2 0
5 -28 12 -61 16 -77 9 -95 26 -104 96 -3 29 -5 261 -3 515 3 520 -1 491 79
502 23 3 44 12 47 19 3 9 -46 12 -220 12 -124 0 -228 -3 -231 -6z"/>
<path d="M2861 1926 c-10 -12 -8 -13 8 -9 12 3 21 9 21 14 0 14 -16 11 -29 -5z"/>
<path d="M2826 1878 c3 -5 10 -6 15 -3 13 9 11 12 -6 12 -8 0 -12 -4 -9 -9z"/>
<path d="M2289 1783 c-13 -15 -12 -15 9 -4 23 12 28 21 13 21 -5 0 -15 -7 -22
-17z"/>
<path d="M1990 1170 c-9 -6 -10 -10 -3 -10 6 0 15 5 18 10 8 12 4 12 -15 0z"/>
<path d="M1800 1159 c0 -5 5 -7 10 -4 6 3 10 8 10 11 0 2 -4 4 -10 4 -5 0 -10
-5 -10 -11z"/>
<path d="M1743 1074 c-20 -18 -22 -22 -7 -15 21 10 52 41 41 41 -3 0 -19 -12
-34 -26z"/>
<path d="M1509 1033 c-13 -15 -12 -15 9 -4 23 12 28 21 13 21 -5 0 -15 -7 -22
-17z"/>
<path d="M1759 1030 c-8 -5 -35 -28 -60 -51 -46 -44 -12 -23 51 30 35 31 39
38 9 21z"/>
<path d="M1519 973 c-13 -16 -12 -17 4 -4 16 13 21 21 13 21 -2 0 -10 -8 -17
-17z"/>
<path d="M1415 970 c-3 -5 -1 -10 4 -10 6 0 11 5 11 10 0 6 -2 10 -4 10 -3 0
-8 -4 -11 -10z"/>
<path d="M1610 910 c-14 -11 -20 -20 -14 -20 6 0 19 9 29 20 23 25 17 25 -15
0z"/>
<path d="M1560 870 c-9 -6 -10 -10 -3 -10 6 0 15 5 18 10 8 12 4 12 -15 0z"/>
<path d="M1234 828 l-19 -23 23 19 c21 18 27 26 19 26 -2 0 -12 -10 -23 -22z"/>
<path d="M1385 790 c-3 -5 -1 -10 4 -10 6 0 11 5 11 10 0 6 -2 10 -4 10 -3 0
-8 -4 -11 -10z"/>
</g>
</svg>
